<svg xmlns="http://www.w3.org/2000/svg">
  <defs>
    <symbol id="deskToogle" viewBox="0 0 24 24" version="1.1">
      <g stroke="none" stroke-width="1" fill="none" fill-rule="evenodd">
        <polygon points="0 0 24 0 24 24 0 24"></polygon>
        <path d="M5.29288961,6.70710318 C4.90236532,6.31657888 4.90236532,5.68341391 5.29288961,5.29288961 C5.68341391,4.90236532 6.31657888,4.90236532 6.70710318,5.29288961 L12.7071032,11.2928896 C13.0856821,11.6714686 13.0989277,12.281055 12.7371505,12.675721 L7.23715054,18.675721 C6.86395813,19.08284 6.23139076,19.1103429 5.82427177,18.7371505 C5.41715278,18.3639581 5.38964985,17.7313908 5.76284226,17.3242718 L10.6158586,12.0300721 L5.29288961,6.70710318 Z" fill="currentColor" fill-rule="nonzero" transform="translate(8.999997, 11.999999) scale(-1, 1) translate(-8.999997, -11.999999)"></path>
        <path d="M10.7071009,15.7071068 C10.3165766,16.0976311 9.68341162,16.0976311 9.29288733,15.7071068 C8.90236304,15.3165825 8.90236304,14.6834175 9.29288733,14.2928932 L15.2928873,8.29289322 C15.6714663,7.91431428 16.2810527,7.90106866 16.6757187,8.26284586 L22.6757187,13.7628459 C23.0828377,14.1360383 23.1103407,14.7686056 22.7371482,15.1757246 C22.3639558,15.5828436 21.7313885,15.6103465 21.3242695,15.2371541 L16.0300699,10.3841378 L10.7071009,15.7071068 Z" fill="currentColor" fill-rule="nonzero" opacity="0.3" transform="translate(15.999997, 11.999999) scale(-1, 1) rotate(-270.000000) translate(-15.999997, -11.999999)"></path>
      </g>
    </symbol>
    <symbol id="dashboard" viewBox="0 0 24 24" version="1.1">
      <g stroke="none" stroke-width="1" fill="none" fill-rule="evenodd">
        <rect x="0" y="0" width="24" height="24"></rect>
        <rect fill="currentColor" x="4" y="4" width="7" height="7" rx="1.5"></rect>
        <path d="M5.5,13 L9.5,13 C10.3284271,13 11,13.6715729 11,14.5 L11,18.5 C11,19.3284271 10.3284271,20 9.5,20 L5.5,20 C4.67157288,20 4,19.3284271 4,18.5 L4,14.5 C4,13.6715729 4.67157288,13 5.5,13 Z M14.5,4 L18.5,4 C19.3284271,4 20,4.67157288 20,5.5 L20,9.5 C20,10.3284271 19.3284271,11 18.5,11 L14.5,11 C13.6715729,11 13,10.3284271 13,9.5 L13,5.5 C13,4.67157288 13.6715729,4 14.5,4 Z M14.5,13 L18.5,13 C19.3284271,13 20,13.6715729 20,14.5 L20,18.5 C20,19.3284271 19.3284271,20 18.5,20 L14.5,20 C13.6715729,20 13,19.3284271 13,18.5 L13,14.5 C13,13.6715729 13.6715729,13 14.5,13 Z" fill="currentColor" opacity="0.3"></path>
      </g>
    </symbol>
    <symbol id="users" viewBox="0 0 24 24" version="1.1">
      <g stroke="none" stroke-width="1" fill="none" fill-rule="evenodd">
        <polygon points="0 0 24 0 24 24 0 24"></polygon>
        <path d="M18,14 C16.3431458,14 15,12.6568542 15,11 C15,9.34314575 16.3431458,8 18,8 C19.6568542,8 21,9.34314575 21,11 C21,12.6568542 19.6568542,14 18,14 Z M9,11 C6.790861,11 5,9.209139 5,7 C5,4.790861 6.790861,3 9,3 C11.209139,3 13,4.790861 13,7 C13,9.209139 11.209139,11 9,11 Z" fill="#3699FF" fill-rule="nonzero" opacity="0.3"></path>
        <path d="M17.6011961,15.0006174 C21.0077043,15.0378534 23.7891749,16.7601418 23.9984937,20.4 C24.0069246,20.5466056 23.9984937,21 23.4559499,21 L19.6,21 C19.6,18.7490654 18.8562935,16.6718327 17.6011961,15.0006174 Z M0.00065168429,20.1992055 C0.388258525,15.4265159 4.26191235,13 8.98334134,13 C13.7712164,13 17.7048837,15.2931929 17.9979143,20.2 C18.0095879,20.3954741 17.9979143,21 17.2466999,21 C13.541124,21 8.03472472,21 0.727502227,21 C0.476712155,21 -0.0204617505,20.45918 0.00065168429,20.1992055 Z" fill="#3699FF" fill-rule="nonzero"></path>
      </g>
    </symbol>
    <symbol id="bucket" viewBox="0 0 24 24" version="1.1">
      <g stroke="none" stroke-width="1" fill="none" fill-rule="evenodd">
        <rect x="0" y="0" width="24" height="24"></rect>
        <path d="M12,4.56204994 L7.76822128,9.6401844 C7.4146572,10.0644613 6.7840925,10.1217854 6.3598156,9.76822128 C5.9355387,9.4146572 5.87821464,8.7840925 6.23177872,8.3598156 L11.2317787,2.3598156 C11.6315738,1.88006147 12.3684262,1.88006147 12.7682213,2.3598156 L17.7682213,8.3598156 C18.1217854,8.7840925 18.0644613,9.4146572 17.6401844,9.76822128 C17.2159075,10.1217854 16.5853428,10.0644613 16.2317787,9.6401844 L12,4.56204994 Z" fill="#FFA800" fill-rule="nonzero" opacity="0.3"></path>
        <path d="M3.28077641,9 L20.7192236,9 C21.2715083,9 21.7192236,9.44771525 21.7192236,10 C21.7192236,10.0817618 21.7091962,10.163215 21.6893661,10.2425356 L19.5680983,18.7276069 C19.234223,20.0631079 18.0342737,21 16.6576708,21 L7.34232922,21 C5.96572629,21 4.76577697,20.0631079 4.43190172,18.7276069 L2.31063391,10.2425356 C2.17668518,9.70674072 2.50244587,9.16380623 3.03824078,9.0298575 C3.11756139,9.01002735 3.1990146,9 3.28077641,9 Z M12,12 C11.4477153,12 11,12.4477153 11,13 L11,17 C11,17.5522847 11.4477153,18 12,18 C12.5522847,18 13,17.5522847 13,17 L13,13 C13,12.4477153 12.5522847,12 12,12 Z M6.96472382,12.1362967 C6.43125772,12.2792385 6.11467523,12.8275755 6.25761704,13.3610416 L7.29289322,17.2247449 C7.43583503,17.758211 7.98417199,18.0747935 8.51763809,17.9318517 C9.05110419,17.7889098 9.36768668,17.2405729 9.22474487,16.7071068 L8.18946869,12.8434035 C8.04652688,12.3099374 7.49818992,11.9933549 6.96472382,12.1362967 Z M17.0352762,12.1362967 C16.5018101,11.9933549 15.9534731,12.3099374 15.8105313,12.8434035 L14.7752551,16.7071068 C14.6323133,17.2405729 14.9488958,17.7889098 15.4823619,17.9318517 C16.015828,18.0747935 16.564165,17.758211 16.7071068,17.2247449 L17.742383,13.3610416 C17.8853248,12.8275755 17.5687423,12.2792385 17.0352762,12.1362967 Z" fill="#FFA800"></path>
      </g>
    </symbol>
    <symbol id="location" viewBox="0 0 24 24" version="1.1">
      <g stroke="none" stroke-width="1" fill="none" fill-rule="evenodd">
        <rect x="0" y="0" width="24" height="24"></rect>
        <path d="M5,10.5 C5,6 8,3 12.5,3 C17,3 20,6.75 20,10.5 C20,12.8325623 17.8236613,16.03566 13.470984,20.1092932 C12.9154018,20.6292577 12.0585054,20.6508331 11.4774555,20.1594925 C7.15915182,16.5078313 5,13.2880005 5,10.5 Z M12.5,12 C13.8807119,12 15,10.8807119 15,9.5 C15,8.11928813 13.8807119,7 12.5,7 C11.1192881,7 10,8.11928813 10,9.5 C10,10.8807119 11.1192881,12 12.5,12 Z" fill="#3699FF" fill-rule="nonzero"></path>
      </g>
    </symbol>
    <symbol id="doller" viewBox="0 0 24 24" version="1.1">
      <g stroke="none" stroke-width="1" fill="none" fill-rule="evenodd">
        <rect x="0" y="0" width="24" height="24"></rect>
        <rect fill="#1CC5BD" opacity="0.3" x="11.5" y="2" width="2" height="4" rx="1"></rect>
        <rect fill="#1CC5BD" opacity="0.3" x="11.5" y="16" width="2" height="5" rx="1"></rect>
        <path d="M15.493,8.044 C15.2143319,7.68933156 14.8501689,7.40750104 14.4005,7.1985 C13.9508311,6.98949895 13.5170021,6.885 13.099,6.885 C12.8836656,6.885 12.6651678,6.90399981 12.4435,6.942 C12.2218322,6.98000019 12.0223342,7.05283279 11.845,7.1605 C11.6676658,7.2681672 11.5188339,7.40749914 11.3985,7.5785 C11.2781661,7.74950085 11.218,7.96799867 11.218,8.234 C11.218,8.46200114 11.2654995,8.65199924 11.3605,8.804 C11.4555005,8.95600076 11.5948324,9.08899943 11.7785,9.203 C11.9621676,9.31700057 12.1806654,9.42149952 12.434,9.5165 C12.6873346,9.61150047 12.9723317,9.70966616 13.289,9.811 C13.7450023,9.96300076 14.2199975,10.1308324 14.714,10.3145 C15.2080025,10.4981676 15.6576646,10.7419985 16.063,11.046 C16.4683354,11.3500015 16.8039987,11.7268311 17.07,12.1765 C17.3360013,12.6261689 17.469,13.1866633 17.469,13.858 C17.469,14.6306705 17.3265014,15.2988305 17.0415,15.8625 C16.7564986,16.4261695 16.3733357,16.8916648 15.892,17.259 C15.4106643,17.6263352 14.8596698,17.8986658 14.239,18.076 C13.6183302,18.2533342 12.97867,18.342 12.32,18.342 C11.3573285,18.342 10.4263378,18.1741683 9.527,17.8385 C8.62766217,17.5028317 7.88033631,17.0246698 7.285,16.404 L9.413,14.238 C9.74233498,14.6433354 10.176164,14.9821653 10.7145,15.2545 C11.252836,15.5268347 11.7879973,15.663 12.32,15.663 C12.5606679,15.663 12.7949989,15.6376669 13.023,15.587 C13.2510011,15.5363331 13.4504991,15.4540006 13.6215,15.34 C13.7925009,15.2259994 13.9286662,15.0740009 14.03,14.884 C14.1313338,14.693999 14.182,14.4660013 14.182,14.2 C14.182,13.9466654 14.1186673,13.7313342 13.992,13.554 C13.8653327,13.3766658 13.6848345,13.2151674 13.4505,13.0695 C13.2161655,12.9238326 12.9248351,12.7908339 12.5765,12.6705 C12.2281649,12.5501661 11.8323355,12.420334 11.389,12.281 C10.9583312,12.141666 10.5371687,11.9770009 10.1255,11.787 C9.71383127,11.596999 9.34650161,11.3531682 9.0235,11.0555 C8.70049838,10.7578318 8.44083431,10.3968355 8.2445,9.9725 C8.04816568,9.54816454 7.95,9.03200304 7.95,8.424 C7.95,7.67666293 8.10199848,7.03700266 8.406,6.505 C8.71000152,5.97299734 9.10899753,5.53600171 9.603,5.194 C10.0970025,4.85199829 10.6543302,4.60183412 11.275,4.4435 C11.8956698,4.28516587 12.5226635,4.206 13.156,4.206 C13.9160038,4.206 14.6918294,4.34533194 15.4835,4.624 C16.2751706,4.90266806 16.9686637,5.31433061 17.564,5.859 L15.493,8.044 Z" fill="#1CC5BD"></path>
      </g>
    </symbol>
    <symbol id="offer" viewBox="0 0 24 24" version="1.1">
      <g stroke="none" stroke-width="1" fill="none" fill-rule="evenodd">
        <rect x="0" y="0" width="24" height="24"></rect>
        <polygon fill="#3699FF" opacity="0.3" points="12 20.0218549 8.47346039 21.7286168 6.86905972 18.1543453 3.07048824 17.1949849 4.13894342 13.4256452 1.84573388 10.2490577 5.08710286 8.04836581 5.3722735 4.14091196 9.2698837 4.53859595 12 1.72861679 14.7301163 4.53859595 18.6277265 4.14091196 18.9128971 8.04836581 22.1542661 10.2490577 19.8610566 13.4256452 20.9295118 17.1949849 17.1309403 18.1543453 15.5265396 21.7286168"></polygon>
        <polygon fill="#3699FF" points="14.0890818 8.60255815 8.36079737 14.7014391 9.70868621 16.049328 15.4369707 9.950447"></polygon>
        <path d="M10.8543431,9.1753866 C10.8543431,10.1252593 10.085524,10.8938719 9.13585777,10.8938719 C8.18793881,10.8938719 7.41737243,10.1252593 7.41737243,9.1753866 C7.41737243,8.22551387 8.18793881,7.45690126 9.13585777,7.45690126 C10.085524,7.45690126 10.8543431,8.22551387 10.8543431,9.1753866" fill="#3699FF" opacity="0.3"></path>
        <path d="M14.8641422,16.6221564 C13.9162233,16.6221564 13.1456569,15.8535438 13.1456569,14.9036711 C13.1456569,13.9520555 13.9162233,13.1851857 14.8641422,13.1851857 C15.8138085,13.1851857 16.5826276,13.9520555 16.5826276,14.9036711 C16.5826276,15.8535438 15.8138085,16.6221564 14.8641422,16.6221564 Z" fill="#3699FF" opacity="0.3"></path>
      </g>
    </symbol>
    <symbol id="dashboard" viewBox="0 0 24 24" version="1.1">
      <g stroke="none" stroke-width="1" fill="none" fill-rule="evenodd">
        <polygon points="0 0 24 0 24 24 0 24"></polygon>
        <path d="M12.9336061,16.072447 L19.36,10.9564761 L19.5181585,10.8312381 C20.1676248,10.3169571 20.2772143,9.3735535 19.7629333,8.72408713 C19.6917232,8.63415859 19.6104327,8.55269514 19.5206557,8.48129411 L12.9336854,3.24257445 C12.3871201,2.80788259 11.6128799,2.80788259 11.0663146,3.24257445 L4.47482784,8.48488609 C3.82645598,9.00054628 3.71887192,9.94418071 4.23453211,10.5925526 C4.30500305,10.6811601 4.38527899,10.7615046 4.47382636,10.8320511 L4.63,10.9564761 L11.0659024,16.0730648 C11.6126744,16.5077525 12.3871218,16.5074963 12.9336061,16.072447 Z" fill="currentColor" fill-rule="nonzero"></path>
        <path d="M11.0563554,18.6706981 L5.33593024,14.122919 C4.94553994,13.8125559 4.37746707,13.8774308 4.06710397,14.2678211 C4.06471678,14.2708238 4.06234874,14.2738418 4.06,14.2768747 L4.06,14.2768747 C3.75257288,14.6738539 3.82516916,15.244888 4.22214834,15.5523151 C4.22358765,15.5534297 4.2250303,15.55454 4.22647627,15.555646 L11.0872776,20.8031356 C11.6250734,21.2144692 12.371757,21.2145375 12.909628,20.8033023 L19.7677785,15.559828 C20.1693192,15.2528257 20.2459576,14.6784381 19.9389553,14.2768974 C19.9376429,14.2751809 19.9363245,14.2734691 19.935,14.2717619 L19.935,14.2717619 C19.6266937,13.8743807 19.0546209,13.8021712 18.6572397,14.1104775 C18.654352,14.112718 18.6514778,14.1149757 18.6486172,14.1172508 L12.9235044,18.6705218 C12.377022,19.1051477 11.6029199,19.1052208 11.0563554,18.6706981 Z" fill="currentColor" opacity="0.3"></path>
      </g>
    </symbol>
    <symbol id="customers" viewBox="0 0 24 24" version="1.1">
      <g stroke="none" stroke-width="1" fill="none" fill-rule="evenodd">
        <polygon points="0 0 24 0 24 24 0 24"></polygon>
        <path d="M12,11 C9.790861,11 8,9.209139 8,7 C8,4.790861 9.790861,3 12,3 C14.209139,3 16,4.790861 16,7 C16,9.209139 14.209139,11 12,11 Z" fill="currentColor" fill-rule="nonzero" opacity="0.3"></path>
        <path d="M3.00065168,20.1992055 C3.38825852,15.4265159 7.26191235,13 11.9833413,13 C16.7712164,13 20.7048837,15.2931929 20.9979143,20.2 C21.0095879,20.3954741 20.9979143,21 20.2466999,21 C16.541124,21 11.0347247,21 3.72750223,21 C3.47671215,21 2.97953825,20.45918 3.00065168,20.1992055 Z" fill="currentColor" fill-rule="nonzero"></path>
      </g>
    </symbol>
    <symbol id="cms" viewBox="0 0 24 24" version="1.1">
      <g stroke="none" stroke-width="1" fill="none" fill-rule="evenodd">
        <rect x="0" y="0" width="24" height="24"></rect>
        <path d="M4,9.67471899 L10.880262,13.6470401 C10.9543486,13.689814 11.0320333,13.7207107 11.1111111,13.740321 L11.1111111,21.4444444 L4.49070127,17.526473 C4.18655139,17.3464765 4,17.0193034 4,16.6658832 L4,9.67471899 Z M20,9.56911707 L20,16.6658832 C20,17.0193034 19.8134486,17.3464765 19.5092987,17.526473 L12.8888889,21.4444444 L12.8888889,13.6728275 C12.9050191,13.6647696 12.9210067,13.6561758 12.9368301,13.6470401 L20,9.56911707 Z" fill="currentColor"></path>
        <path d="M4.21611835,7.74669402 C4.30015839,7.64056877 4.40623188,7.55087574 4.5299008,7.48500698 L11.5299008,3.75665466 C11.8237589,3.60013944 12.1762411,3.60013944 12.4700992,3.75665466 L19.4700992,7.48500698 C19.5654307,7.53578262 19.6503066,7.60071528 19.7226939,7.67641889 L12.0479413,12.1074394 C11.9974761,12.1365754 11.9509488,12.1699127 11.9085461,12.2067543 C11.8661433,12.1699127 11.819616,12.1365754 11.7691509,12.1074394 L4.21611835,7.74669402 Z" fill="currentColor" opacity="0.3"></path>
      </g>
    </symbol>
    <symbol id="reviews" viewBox="0 0 24 24" version="1.1">
      <g stroke="none" stroke-width="1" fill="none" fill-rule="evenodd">
        <polygon points="0 0 24 0 24 24 0 24"></polygon>
        <path d="M12,18 L7.91561963,20.1472858 C7.42677504,20.4042866 6.82214789,20.2163401 6.56514708,19.7274955 C6.46280801,19.5328351 6.42749334,19.309867 6.46467018,19.0931094 L7.24471742,14.545085 L3.94038429,11.3241562 C3.54490071,10.938655 3.5368084,10.3055417 3.92230962,9.91005817 C4.07581822,9.75257453 4.27696063,9.65008735 4.49459766,9.61846284 L9.06107374,8.95491503 L11.1032639,4.81698575 C11.3476862,4.32173209 11.9473121,4.11839309 12.4425657,4.36281539 C12.6397783,4.46014562 12.7994058,4.61977315 12.8967361,4.81698575 L14.9389263,8.95491503 L19.5054023,9.61846284 C20.0519472,9.69788046 20.4306287,10.2053233 20.351211,10.7518682 C20.3195865,10.9695052 20.2170993,11.1706476 20.0596157,11.3241562 L16.7552826,14.545085 L17.5353298,19.0931094 C17.6286908,19.6374458 17.263103,20.1544017 16.7187666,20.2477627 C16.5020089,20.2849396 16.2790408,20.2496249 16.0843804,20.1472858 L12,18 Z" fill="currentColor"></path>
      </g>
    </symbol>
    <symbol id="settings" viewBox="0 0 24 24" version="1.1">
      <g stroke="none" stroke-width="1" fill="none" fill-rule="evenodd">
        <rect x="0" y="0" width="24" height="24"></rect>
        <path d="M5,8.6862915 L5,5 L8.6862915,5 L11.5857864,2.10050506 L14.4852814,5 L19,5 L19,9.51471863 L21.4852814,12 L19,14.4852814 L19,19 L14.4852814,19 L11.5857864,21.8994949 L8.6862915,19 L5,19 L5,15.3137085 L1.6862915,12 L5,8.6862915 Z M12,15 C13.6568542,15 15,13.6568542 15,12 C15,10.3431458 13.6568542,9 12,9 C10.3431458,9 9,10.3431458 9,12 C9,13.6568542 10.3431458,15 12,15 Z" fill="currentColor"></path>
      </g>
    </symbol>
    <symbol id="integration" viewBox="0 0 24 24" version="1.1">
      <g stroke="none" stroke-width="1" fill="none" fill-rule="evenodd">
        <rect x="0" y="0" width="24" height="24"></rect>
        <path d="M6,9 L6,15 C6,16.6568542 7.34314575,18 9,18 L15,18 L15,18.8181818 C15,20.2324881 14.2324881,21 12.8181818,21 L5.18181818,21 C3.76751186,21 3,20.2324881 3,18.8181818 L3,11.1818182 C3,9.76751186 3.76751186,9 5.18181818,9 L6,9 Z M17,16 L17,10 C17,8.34314575 15.6568542,7 14,7 L8,7 L8,6.18181818 C8,4.76751186 8.76751186,4 10.1818182,4 L17.8181818,4 C19.2324881,4 20,4.76751186 20,6.18181818 L20,13.8181818 C20,15.2324881 19.2324881,16 17.8181818,16 L17,16 Z" fill="currentColor" fill-rule="nonzero"></path>
        <path d="M9.27272727,9 L13.7272727,9 C14.5522847,9 15,9.44771525 15,10.2727273 L15,14.7272727 C15,15.5522847 14.5522847,16 13.7272727,16 L9.27272727,16 C8.44771525,16 8,15.5522847 8,14.7272727 L8,10.2727273 C8,9.44771525 8.44771525,9 9.27272727,9 Z" fill="currentColor" opacity="0.3"></path>
      </g>
    </symbol>
    <symbol id="business" viewBox="0 0 24 24" version="1.1">
      <g stroke="none" stroke-width="1" fill="none" fill-rule="evenodd">
        <rect x="0" y="0" width="24" height="24"></rect>
        <path d="M3.95709826,8.41510662 L11.47855,3.81866389 C11.7986624,3.62303967 12.2013376,3.62303967 12.52145,3.81866389 L20.0429,8.41510557 C20.6374094,8.77841684 21,9.42493654 21,10.1216692 L21,19.0000642 C21,20.1046337 20.1045695,21.0000642 19,21.0000642 L4.99998155,21.0000673 C3.89541205,21.0000673 2.99998155,20.1046368 2.99998155,19.0000673 L2.99999828,10.1216672 C2.99999935,9.42493561 3.36258984,8.77841732 3.95709826,8.41510662 Z M10,13 C9.44771525,13 9,13.4477153 9,14 L9,17 C9,17.5522847 9.44771525,18 10,18 L14,18 C14.5522847,18 15,17.5522847 15,17 L15,14 C15,13.4477153 14.5522847,13 14,13 L10,13 Z" fill="currentColor"></path>
      </g>
    </symbol>
    <symbol id="fulfillment" viewBox="0 0 24 24" version="1.1">
      <g stroke="none" stroke-width="1" fill="none" fill-rule="evenodd">
        <polygon points="0 0 24 0 24 24 0 24"></polygon>
        <path d="M8,7 C7.44771525,7 7,6.55228475 7,6 C7,5.44771525 7.44771525,5 8,5 L16,5 C18.209139,5 20,6.790861 20,9 C20,11.209139 18.209139,13 16,13 L8,13 C6.8954305,13 6,13.8954305 6,15 C6,16.1045695 6.8954305,17 8,17 L17,17 C17.5522847,17 18,17.4477153 18,18 C18,18.5522847 17.5522847,19 17,19 L8,19 C5.790861,19 4,17.209139 4,15 C4,12.790861 5.790861,11 8,11 L16,11 C17.1045695,11 18,10.1045695 18,9 C18,7.8954305 17.1045695,7 16,7 L8,7 Z" fill="currentColor" fill-rule="nonzero" opacity="0.3"></path>
        <path d="M9.79289322,3.79289322 C10.1834175,3.40236893 10.8165825,3.40236893 11.2071068,3.79289322 C11.5976311,4.18341751 11.5976311,4.81658249 11.2071068,5.20710678 L8.20710678,8.20710678 C7.81658249,8.59763107 7.18341751,8.59763107 6.79289322,8.20710678 L3.79289322,5.20710678 C3.40236893,4.81658249 3.40236893,4.18341751 3.79289322,3.79289322 C4.18341751,3.40236893 4.81658249,3.40236893 5.20710678,3.79289322 L7.5,6.08578644 L9.79289322,3.79289322 Z" fill="currentColor" fill-rule="nonzero" transform="translate(7.500000, 6.000000) rotate(-270.000000) translate(-7.500000, -6.000000) "></path>
        <path d="M18.7928932,15.7928932 C19.1834175,15.4023689 19.8165825,15.4023689 20.2071068,15.7928932 C20.5976311,16.1834175 20.5976311,16.8165825 20.2071068,17.2071068 L17.2071068,20.2071068 C16.8165825,20.5976311 16.1834175,20.5976311 15.7928932,20.2071068 L12.7928932,17.2071068 C12.4023689,16.8165825 12.4023689,16.1834175 12.7928932,15.7928932 C13.1834175,15.4023689 13.8165825,15.4023689 14.2071068,15.7928932 L16.5,18.0857864 L18.7928932,15.7928932 Z" fill="currentColor" fill-rule="nonzero" transform="translate(16.500000, 18.000000) scale(1, -1) rotate(270.000000) translate(-16.500000, -18.000000) "></path>
      </g>
    </symbol>
    <symbol id="shipping" viewBox="0 0 24 24" version="1.1">
      <g stroke="none" stroke-width="1" fill="none" fill-rule="evenodd">
        <rect x="0" y="0" width="24" height="24"></rect>
        <path d="M20.4061385,6.73606154 C20.7672665,6.89656288 21,7.25468437 21,7.64987309 L21,16.4115967 C21,16.7747638 20.8031081,17.1093844 20.4856429,17.2857539 L12.4856429,21.7301984 C12.1836204,21.8979887 11.8163796,21.8979887 11.5143571,21.7301984 L3.51435707,17.2857539 C3.19689188,17.1093844 3,16.7747638 3,16.4115967 L3,7.64987309 C3,7.25468437 3.23273352,6.89656288 3.59386153,6.73606154 L11.5938615,3.18050598 C11.8524269,3.06558805 12.1475731,3.06558805 12.4061385,3.18050598 L20.4061385,6.73606154 Z" fill="currentColor" opacity="0.3"></path>
        <polygon fill="currentColor" points="14.9671522 4.22441676 7.5999999 8.31727912 7.5999999 12.9056825 9.5999999 13.9056825 9.5999999 9.49408582 17.25507 5.24126912"></polygon>
      </g>
    </symbol>
    <symbol id="legal" viewBox="0 0 24 24" version="1.1">
      <g stroke="none" stroke-width="1" fill="none" fill-rule="evenodd">
        <rect x="0" y="0" width="24" height="24"></rect>
        <path d="M8,3 L8,3.5 C8,4.32842712 8.67157288,5 9.5,5 L14.5,5 C15.3284271,5 16,4.32842712 16,3.5 L16,3 L18,3 C19.1045695,3 20,3.8954305 20,5 L20,21 C20,22.1045695 19.1045695,23 18,23 L6,23 C4.8954305,23 4,22.1045695 4,21 L4,5 C4,3.8954305 4.8954305,3 6,3 L8,3 Z" fill="currentColor" opacity="0.3"></path>
        <path d="M11,2 C11,1.44771525 11.4477153,1 12,1 C12.5522847,1 13,1.44771525 13,2 L14.5,2 C14.7761424,2 15,2.22385763 15,2.5 L15,3.5 C15,3.77614237 14.7761424,4 14.5,4 L9.5,4 C9.22385763,4 9,3.77614237 9,3.5 L9,2.5 C9,2.22385763 9.22385763,2 9.5,2 L11,2 Z" fill="currentColor"></path>
        <rect fill="currentColor" opacity="0.3" x="7" y="10" width="5" height="2" rx="1"></rect>
        <rect fill="currentColor" opacity="0.3" x="7" y="14" width="9" height="2" rx="1"></rect>
      </g>
    </symbol>
    <symbol id="tax" viewBox="0 0 24 24" version="1.1">
      <g stroke="none" stroke-width="1" fill="none" fill-rule="evenodd">
        <rect x="0" y="0" width="24" height="24"></rect>
        <rect fill="currentColor" opacity="0.3" x="7" y="4" width="10" height="4"></rect>
        <path d="M7,2 L17,2 C18.1045695,2 19,2.8954305 19,4 L19,20 C19,21.1045695 18.1045695,22 17,22 L7,22 C5.8954305,22 5,21.1045695 5,20 L5,4 C5,2.8954305 5.8954305,2 7,2 Z M8,12 C8.55228475,12 9,11.5522847 9,11 C9,10.4477153 8.55228475,10 8,10 C7.44771525,10 7,10.4477153 7,11 C7,11.5522847 7.44771525,12 8,12 Z M8,16 C8.55228475,16 9,15.5522847 9,15 C9,14.4477153 8.55228475,14 8,14 C7.44771525,14 7,14.4477153 7,15 C7,15.5522847 7.44771525,16 8,16 Z M12,12 C12.5522847,12 13,11.5522847 13,11 C13,10.4477153 12.5522847,10 12,10 C11.4477153,10 11,10.4477153 11,11 C11,11.5522847 11.4477153,12 12,12 Z M12,16 C12.5522847,16 13,15.5522847 13,15 C13,14.4477153 12.5522847,14 12,14 C11.4477153,14 11,14.4477153 11,15 C11,15.5522847 11.4477153,16 12,16 Z M16,12 C16.5522847,12 17,11.5522847 17,11 C17,10.4477153 16.5522847,10 16,10 C15.4477153,10 15,10.4477153 15,11 C15,11.5522847 15.4477153,12 16,12 Z M16,16 C16.5522847,16 17,15.5522847 17,15 C17,14.4477153 16.5522847,14 16,14 C15.4477153,14 15,14.4477153 15,15 C15,15.5522847 15.4477153,16 16,16 Z M16,20 C16.5522847,20 17,19.5522847 17,19 C17,18.4477153 16.5522847,18 16,18 C15.4477153,18 15,18.4477153 15,19 C15,19.5522847 15.4477153,20 16,20 Z M8,18 C7.44771525,18 7,18.4477153 7,19 C7,19.5522847 7.44771525,20 8,20 L12,20 C12.5522847,20 13,19.5522847 13,19 C13,18.4477153 12.5522847,18 12,18 L8,18 Z M7,4 L7,8 L17,8 L17,4 L7,4 Z" fill="currentColor"></path>
      </g>
    </symbol>
    <symbol id="map" viewBox="0 0 13.139 15.568">
      <path d="M46.351,1.924a6.576,6.576,0,0,0-9.29,9.308l4.123,4.123a.814.814,0,0,0,.531.212.689.689,0,0,0,.513-.23L46.351,11.2A6.547,6.547,0,0,0,46.351,1.924ZM41.714,8.6a2.69,2.69,0,1,1,2.69-2.69A2.689,2.689,0,0,1,41.714,8.6Z" transform="translate(-35.136)" fill="currentColor" />
    </symbol>
    <symbol id="dropdown-d" viewBox="0 0 10.938 5.563">
      <path d="M561.8,30.5l5.385,4,4.615-4" transform="translate(-561.353 -29.898)" fill="none" stroke="currentColor" stroke-width="1.5" />
    </symbol>
    <symbol id="code" viewBox="0 0 24 24" version="1.1">
      <g stroke="none" stroke-width="1" fill="none" fill-rule="evenodd">
        <rect x="0" y="0" width="24" height="24"></rect>
        <path d="M17.2718029,8.68536757 C16.8932864,8.28319382 16.9124644,7.65031935 17.3146382,7.27180288 C17.7168119,6.89328641 18.3496864,6.91246442 18.7282029,7.31463817 L22.7282029,11.5646382 C23.0906029,11.9496882 23.0906029,12.5503176 22.7282029,12.9353676 L18.7282029,17.1853676 C18.3496864,17.5875413 17.7168119,17.6067193 17.3146382,17.2282029 C16.9124644,16.8496864 16.8932864,16.2168119 17.2718029,15.8146382 L20.6267538,12.2500029 L17.2718029,8.68536757 Z M6.72819712,8.6853647 L3.37324625,12.25 L6.72819712,15.8146353 C7.10671359,16.2168091 7.08753558,16.8496835 6.68536183,17.2282 C6.28318808,17.6067165 5.65031361,17.5875384 5.27179713,17.1853647 L1.27179713,12.9353647 C0.909397125,12.5503147 0.909397125,11.9496853 1.27179713,11.5646353 L5.27179713,7.3146353 C5.65031361,6.91246155 6.28318808,6.89328354 6.68536183,7.27180001 C7.08753558,7.65031648 7.10671359,8.28319095 6.72819712,8.6853647 Z" fill="currentColor" fill-rule="nonzero"></path>
        <rect fill="currentColor" opacity="0.3" transform="translate(12.000000, 12.000000) rotate(-345.000000) translate(-12.000000, -12.000000) " x="11" y="4" width="2" height="16" rx="1"></rect>
      </g>
    </symbol>
    <symbol id="file" viewBox="0 0 24 24" version="1.1">
      <g stroke="none" stroke-width="1" fill="none" fill-rule="evenodd">
        <polygon points="0 0 24 0 24 24 0 24"></polygon>
        <path d="M5.85714286,2 L13.7364114,2 C14.0910962,2 14.4343066,2.12568431 14.7051108,2.35473959 L19.4686994,6.3839416 C19.8056532,6.66894833 20,7.08787823 20,7.52920201 L20,20.0833333 C20,21.8738751 19.9795521,22 18.1428571,22 L5.85714286,22 C4.02044787,22 4,21.8738751 4,20.0833333 L4,3.91666667 C4,2.12612489 4.02044787,2 5.85714286,2 Z" fill="currentColor" fill-rule="nonzero" opacity="0.3"></path>
        <rect fill="currentColor" x="6" y="11" width="9" height="2" rx="1"></rect>
        <rect fill="currentColor" x="6" y="15" width="5" height="2" rx="1"></rect>
      </g>
    </symbol>
    <symbol id="substract" viewBox="0 0 24 24" version="1.1">
      <g stroke="none" stroke-width="1" fill="none" fill-rule="evenodd">
        <rect x="0" y="0" width="24" height="24"></rect>
        <path d="M6,9 L6,15 C6,16.6568542 7.34314575,18 9,18 L15,18 L15,18.8181818 C15,20.2324881 14.2324881,21 12.8181818,21 L5.18181818,21 C3.76751186,21 3,20.2324881 3,18.8181818 L3,11.1818182 C3,9.76751186 3.76751186,9 5.18181818,9 L6,9 Z" fill="currentColor" fill-rule="nonzero"></path>
        <path d="M10.1818182,4 L17.8181818,4 C19.2324881,4 20,4.76751186 20,6.18181818 L20,13.8181818 C20,15.2324881 19.2324881,16 17.8181818,16 L10.1818182,16 C8.76751186,16 8,15.2324881 8,13.8181818 L8,6.18181818 C8,4.76751186 8.76751186,4 10.1818182,4 Z" fill="currentColor" opacity="0.3"></path>
      </g>
    </symbol>
    <symbol id="is" viewBox="0 0 15.079 16.105">
      <g transform="translate(0 0)">
        <path d="M10.323,23.236a.428.428,0,0,0-.337-.164H1.844l-.121-1.348a.428.428,0,0,0-.426-.389H.428a.428.428,0,1,0,0,.855H.906l.469,5.222c0,.006,0,.012,0,.018a.43.43,0,0,0,.006.048l.017.191v.011a1.646,1.646,0,0,0,.615,1.1,1.3,1.3,0,1,0,2.24.356H6.594a1.3,1.3,0,1,0,1.219-.855H3.037a.794.794,0,0,1-.73-.482l6.835-.4a.428.428,0,0,0,.39-.323L10.4,23.6A.428.428,0,0,0,10.323,23.236Z" transform="translate(4.666 -14.774)" fill="currentColor"></path>
        <path d="M476.084,200.607a1.927,1.927,0,0,0-1.734,2.14c.181,1.862.325,3.728.488,5.592.081.925.158,1.851.258,2.774a1.2,1.2,0,0,0,1.141,1.056,1.12,1.12,0,0,0,1.162-.964c.119-.849.17-1.707.247-2.562.14-1.569.285-3.139.411-4.709.027-.338.139-.339.384-.187.323.2.651.4.99.566a.875.875,0,1,0,.849-1.529c-.577-.352-1.168-.681-1.754-1.018a5.556,5.556,0,0,1-1.047-.706A1.943,1.943,0,0,0,476.084,200.607Z" transform="translate(-473.676 -196.065)" fill="currentColor"></path>
        <path d="M508.081,146.907a1.759,1.759,0,1,0-.021,3.517,1.759,1.759,0,1,0,.021-3.517Z" transform="translate(-506.306 -146.907)" fill="currentColor"></path>
      </g>
    </symbol>
    <symbol id="cs" viewBox="0 0 15.162 14.581">
      <g transform="translate(0)">
        <path d="M356.21,172.216l1.913-1.743c.3-.275.611-.54.9-.829a1.691,1.691,0,0,1,1.386-.506c.482.032.966.047,1.449.071.572.028.911.343.893.828s-.379.767-.954.741c-1.668-.073-1.666-.072-2.871,1.077-.295.281-.6.55-.9.827s-.571.538-.886.836a1.971,1.971,0,0,1,1.06.96c.206.449.134.558-.364.563h-.153c-.679,0-.747.07-.749.74,0,.293-.014.587,0,.879.018.314-.114.435-.423.431-.713-.01-1.426,0-2.139,0-.739,0-1.477,0-2.216.012-.315.007-.46-.084-.458-.432q.019-2.827,0-5.654c0-.357.13-.463.472-.453.713.02,1.426,0,2.139.006A1.68,1.68,0,0,1,356.149,172C356.164,172.056,356.181,172.113,356.21,172.216Zm-2.3,1.263c1.259,0,1.259,0,1.172-1.22a.6.6,0,0,0-.648-.646c-.432-.017-.865,0-1.3-.009-.241-.006-.351.086-.345.334.009.407.007.814,0,1.222,0,.222.086.329.317.322C353.374,173.473,353.642,173.48,353.909,173.48Z" transform="translate(-351.7 -167.433)" fill="currentColor"></path>
        <path d="M478.547,200.607a1.742,1.742,0,0,1,1.568,1.935c-.164,1.684-.294,3.372-.441,5.058-.073.837-.143,1.674-.233,2.509a1.088,1.088,0,0,1-1.031.955,1.013,1.013,0,0,1-1.051-.872c-.107-.768-.154-1.544-.223-2.317-.127-1.419-.258-2.838-.372-4.259-.025-.306-.125-.307-.347-.169-.292.181-.588.358-.9.512a.791.791,0,1,1-.768-1.383c.522-.319,1.057-.616,1.586-.92a5.026,5.026,0,0,0,.947-.639A1.757,1.757,0,0,1,478.547,200.607Z" transform="translate(-464.961 -196.5)" fill="currentColor"></path>
        <path d="M355.54,279.024c1.07,0,2.139-.005,3.209,0a.906.906,0,0,1,.976.783.9.9,0,0,1-.876.993c-.33.02-.662,0-.993.006a.458.458,0,0,1-.388-.2,2.139,2.139,0,0,0-3.453,0,.406.406,0,0,1-.353.19q-.764-.005-1.528-.007c-.207,0-.3-.1-.3-.306.006-.356.014-.714,0-1.07-.012-.305.128-.4.415-.394.547.011,1.095,0,1.642,0S354.993,279.024,355.54,279.024Z" transform="translate(-351.829 -268.918)" fill="currentColor"></path>
        <path d="M507.9,146.907a1.59,1.59,0,1,1,.019,3.181,1.591,1.591,0,1,1-.019-3.181Z" transform="translate(-494.481 -146.907)" fill="currentColor"></path>
        <path d="M384.34,296.219a1.6,1.6,0,0,1-1.68,1.64,1.646,1.646,0,0,1-1.619-1.687,1.706,1.706,0,0,1,1.647-1.6A1.631,1.631,0,0,1,384.34,296.219Zm-1.05.027a.642.642,0,0,0-.618-.609.583.583,0,0,0-.55.576.573.573,0,0,0,.558.6A.627.627,0,0,0,383.289,296.246Z" transform="translate(-378.796 -283.278)" fill="currentColor"></path>
        <path d="M426.529,252.591c0-.076,0-.153,0-.229-.006-.521.226-.688.736-.541.175.05.2.175.206.32,0,.267.009.535,0,.8,0,.158.048.362-.159.426a1.02,1.02,0,0,1-.674-.015c-.1-.037-.1-.139-.1-.229,0-.178,0-.356,0-.534Z" transform="translate(-420.805 -243.749)" fill="currentColor"></path>
      </g>
    </symbol>
    <symbol id="scd" viewBox="0 0 15 12">
      <path d="M.964,330.67H.639a.639.639,0,1,0,0,1.279H.964a.639.639,0,1,0,0-1.279Z" transform="translate(0 -322.471)" fill="currentColor"></path>
      <path d="M87,164.527H83.314a.626.626,0,0,1-.612-.64v-3.522a.358.358,0,0,0-.35-.365h-.881a.359.359,0,0,0-.349.384q.006.127.006.255a5.085,5.085,0,0,1-4.964,5.187,4.753,4.753,0,0,1-1.117-.132.354.354,0,0,0-.429.356v1.086a.626.626,0,0,0,.612.64h1.047a1.83,1.83,0,0,0,3.5,0h2.093a1.83,1.83,0,0,0,3.5,0h1.358a.626.626,0,0,0,.612-.64v-2.243A.358.358,0,0,0,87,164.527ZM78.029,167.8a.66.66,0,1,1,.631-.66A.647.647,0,0,1,78.029,167.8Zm5.6,0a.66.66,0,1,1,.631-.66A.647.647,0,0,1,83.625,167.8Z" transform="translate(-72.346 -157.075)" fill="currentColor"></path>
      <path d="M394.365,163.252h2.285a.365.365,0,0,0,.313-.553l-1.431-2.384a.64.64,0,0,0-.548-.31h-.619a.365.365,0,0,0-.365.365v2.517A.365.365,0,0,0,394.365,163.252Z" transform="translate(-382.573 -156.871)" fill="currentColor"></path>
      <path d="M3.888,53.337a3.888,3.888,0,1,0,3.888,3.888A3.892,3.892,0,0,0,3.888,53.337Zm1.1,4.99a.64.64,0,0,1-.9,0l-.65-.65a.639.639,0,0,1-.187-.452v-1.3a.639.639,0,0,1,1.279,0V56.96l.462.462a.64.64,0,0,1,0,.9Z" transform="translate(0 -53.337)" fill="currentColor"></path>
    </symbol>
    <symbol id="sd" viewBox="0 0 15.496 12.199">
      <g transform="translate(0 0)">
        <path d="M5.427,54.9l1.465-2.8a.4.4,0,0,0-.5-.564L2.05,53.17a.672.672,0,0,0-.3.226l-1.722,2.3a.128.128,0,0,0,.126.2C1.782,55.582,3.56,55.245,5.427,54.9Z" transform="translate(0 -51.515)" fill="currentColor"></path>
        <path d="M55.641,161.855l-.369.7a.672.672,0,0,1-.476.35c-1.411.257-2.774.512-4.064.757a.384.384,0,0,0-.312.377v4.349a.672.672,0,0,0,.472.641l4.492,1.4a.384.384,0,0,0,.5-.367v-8.157A.128.128,0,0,0,55.641,161.855Z" transform="translate(-48.806 -158.256)" fill="currentColor"></path>
        <path d="M267.458,52.105l1.465,2.8c1.867.341,3.644.679,5.275.991a.128.128,0,0,0,.126-.2L272.6,53.4a.672.672,0,0,0-.3-.226l-4.343-1.629a.4.4,0,0,0-.5.564Z" transform="translate(-258.854 -51.515)" fill="currentColor"></path>
        <path d="M264.176,162.91a.672.672,0,0,1-.476-.35l-.369-.7a.128.128,0,0,0-.241.059v8.157a.384.384,0,0,0,.5.367l4.492-1.4a.672.672,0,0,0,.472-.642v-4.349a.384.384,0,0,0-.312-.377C266.95,163.422,265.587,163.166,264.176,162.91Zm1.874,4.626-1.366.469a.672.672,0,1,1-.437-1.271l1.366-.469a.672.672,0,1,1,.437,1.271Z" transform="translate(-254.67 -158.257)" fill="currentColor"></path>
      </g>
    </symbol>
    <symbol id="vi" viewBox="0 0 60 40">
      <g transform="translate(-5.227 -39.519)">
        <g transform="translate(5.227 39.519)" fill="#fff" stroke="#eef0f8" stroke-width="1">
          <rect width="60" height="40" rx="5" stroke="none"></rect>
          <rect x="0.5" y="0.5" width="59" height="39" rx="4.5" fill="none"></rect>
        </g>
        <g transform="translate(11.226 51.519)">
          <path d="M32.252,66.992H28.294l2.473-15.2h3.958Zm-7.287-15.2L21.192,62.246l-.446-2.251h0l-1.332-6.836a1.694,1.694,0,0,0-1.877-1.369H11.3l-.073.257a14.805,14.805,0,0,1,4.14,1.737L18.8,66.992h4.124l6.3-15.2Zm31.129,15.2h3.634l-3.168-15.2H53.378a1.819,1.819,0,0,0-1.827,1.133l-5.9,14.069h4.126l.825-2.258H55.63Zm-4.355-5.377,2.079-5.689,1.17,5.689Zm-5.781-6.168.565-3.264a11.423,11.423,0,0,0-3.56-.663c-1.964,0-6.628.858-6.628,5.032,0,3.927,5.474,3.976,5.474,6.039s-4.91,1.693-6.53.392L34.69,66.4a11.091,11.091,0,0,0,4.467.858c2.7,0,6.775-1.4,6.775-5.2,0-3.952-5.523-4.32-5.523-6.039s3.855-1.5,5.548-.565Z" transform="translate(-11.226 -51.519)" fill="#2566af"></path>
        </g>
        <path d="M20.746,60.391l-1.332-6.836a1.694,1.694,0,0,0-1.877-1.369H11.3l-.073.257A15.334,15.334,0,0,1,17.1,55.393,11.854,11.854,0,0,1,20.746,60.391Z" transform="translate(0 -0.396)" fill="#e6a540"></path>
      </g>
    </symbol>
    <symbol id="ae" viewBox="0 0 60 40">
      <g transform="translate(6 -173)">
        <g transform="translate(-6 173)" fill="#fff" stroke="#eef0f8" stroke-width="1">
          <rect width="60" height="40" rx="5" stroke="none"></rect>
          <rect x="0.5" y="0.5" width="59" height="39" rx="4.5" fill="none"></rect>
        </g>
        <g clip-path="url(#a)">
          <path d="M5.68,73.336h-.2c0-.1-.05-.251-.05-.3s0-.15-.151-.15h-.3v.452H4.825V72.28h.453c.2,0,.352.051.352.251a.3.3,0,0,1-.1.251.263.263,0,0,1,.1.2v.2c0,.051,0,.051.05.051Zm-.2-.754c0-.151-.1-.151-.151-.151H4.976v.3h.3C5.379,72.733,5.479,72.682,5.479,72.582Zm.855.2a1.129,1.129,0,0,0-1.157-1.107A1.117,1.117,0,0,0,4.07,72.783a1.133,1.133,0,1,0,2.265,0Zm-.151,0a.967.967,0,0,1-1.006.956.925.925,0,0,1-.956-.956.956.956,0,0,1,.956-.956A1,1,0,0,1,6.184,72.783Zm62-20.33c0,1.51-.956,2.214-2.667,2.214h-3.27v-1.51h3.27a1.043,1.043,0,0,0,.655-.15.641.641,0,0,0,.2-.453.766.766,0,0,0-.2-.5.873.873,0,0,0-.6-.151c-1.559-.051-3.522.05-3.522-2.164a2.122,2.122,0,0,1,2.415-2.114h3.371v1.51h-3.12a1.193,1.193,0,0,0-.654.1.721.721,0,0,0-.251.554.549.549,0,0,0,.352.5,2.573,2.573,0,0,0,.655.1h.905a2.855,2.855,0,0,1,1.963.554A2.175,2.175,0,0,1,68.182,52.452Zm-7.1-1.51a2.855,2.855,0,0,0-1.963-.554h-.905a2.58,2.58,0,0,1-.654-.1.547.547,0,0,1-.352-.5.59.59,0,0,1,.251-.554,1.192,1.192,0,0,1,.654-.1h3.12v-1.51H57.866c-1.812,0-2.416,1.107-2.416,2.114,0,2.214,1.963,2.113,3.523,2.164a.871.871,0,0,1,.6.151.769.769,0,0,1,.2.5.64.64,0,0,1-.2.453,1.144,1.144,0,0,1-.654.15H55.651v1.51h3.271c1.711,0,2.667-.7,2.667-2.214a2.171,2.171,0,0,0-.5-1.51Zm-6.442,2.265H50.67V51.8h3.874V50.389H50.67V49.08h3.975V47.621H49.009v7.045h5.636V53.207ZM47.2,47.974a4.224,4.224,0,0,0-2.063-.353H41.259v7.045H42.97V52.1h1.812c.6,0,.956.051,1.208.3a2.246,2.246,0,0,1,.3,1.409v.855h1.66V53.307A2.322,2.322,0,0,0,47.7,52a1.962,1.962,0,0,0-.855-.6,1.939,1.939,0,0,0,1.208-1.862A1.58,1.58,0,0,0,47.2,47.974Zm-9.561-.353H32.251l-2.164,2.315-2.063-2.315H21.23v7.045h6.693l2.164-2.315,2.063,2.315h3.271V52.3h2.114c1.459,0,2.919-.4,2.919-2.365,0-1.912-1.51-2.315-2.819-2.315Zm8.2,2.919a2.091,2.091,0,0,1-.805.1l-2.063.051V49.08h2.063a1.365,1.365,0,0,1,.805.151.64.64,0,0,1,.352.6A.879.879,0,0,1,45.838,50.54Zm-8.2.352H35.421V49.08h2.214c.6,0,1.006.252,1.006.856A.912.912,0,0,1,37.636,50.892Zm-6.492.251,2.617-2.767v5.686Zm-4.076,2.064H22.891V51.8h3.724V50.389H22.891V49.08h4.227l1.862,2.063-1.912,2.063ZM63.5,42.538H61.086l-3.17-5.284v5.284H54.494l-.655-1.56H50.317l-.654,1.56H47.7a3.64,3.64,0,0,1-2.465-.805,3.683,3.683,0,0,1-.856-2.667,3.637,3.637,0,0,1,.905-2.768,3.416,3.416,0,0,1,2.566-.805h1.61V37h-1.61a1.779,1.779,0,0,0-1.308.4,2.281,2.281,0,0,0-.453,1.61,2.519,2.519,0,0,0,.453,1.661,1.679,1.679,0,0,0,1.157.352h.755l2.415-5.535h2.516L56.2,42.136V35.493h2.617l2.969,4.881V35.493H63.5v7.045h0ZM43.524,35.493H41.813v7.045h1.711V35.493Zm-3.573.3a4.05,4.05,0,0,0-2.013-.3H34.063v7.045h1.661V39.972h1.812a1.724,1.724,0,0,1,1.258.3,2.137,2.137,0,0,1,.251,1.359v.906h1.711V41.129a1.878,1.878,0,0,0-.3-1.258,2.106,2.106,0,0,0-.805-.6,2,2,0,0,0,1.208-1.862,1.743,1.743,0,0,0-.906-1.61Zm-7.1,5.284H28.93V39.67H32.8V38.211H28.93V36.952h3.925V35.493H27.219v7.045h5.636v-1.46Zm-6.894-5.586H23.193L21.13,40.274l-2.214-4.781H16.2v6.643L13.33,35.493H10.814L7.794,42.538H9.606l.654-1.56h3.522l.654,1.56h3.422V37l2.466,5.535h1.459L24.249,37v5.535H25.96V35.493h0Zm27.276,3.976L52.078,36.7l-1.157,2.768ZM38.642,38.362a1.538,1.538,0,0,1-.855.151H35.723v-1.56h2.063a2.222,2.222,0,0,1,.855.1.749.749,0,0,1,.3.654A.693.693,0,0,1,38.642,38.362ZM10.864,39.468,12.021,36.7l1.157,2.768ZM67.779,13.4H7.743V38.764l2.063-4.68h4.378l.6,1.157V34.084h5.133L21.079,36.6l1.107-2.516H38.542a2.975,2.975,0,0,1,1.912.553v-.553h4.479v.553a5.993,5.993,0,0,1,2.818-.553h6.492l.6,1.157V34.084h4.781l.7,1.157V34.084h4.68v9.863h-4.73l-.905-1.51v1.51H53.488l-.654-1.61h-1.46l-.654,1.61H47.65a6.03,6.03,0,0,1-2.717-.6v.6h-7.3V41.683c0-.3-.05-.352-.252-.352h-.251v2.617H23.042V42.689l-.5,1.258H19.57l-.5-1.208v1.208H13.38l-.6-1.61h-1.46l-.654,1.61H7.743V73.688H67.779V55.622a6.161,6.161,0,0,1-2.466.453H60.935v-.6a3.881,3.881,0,0,1-2.264.6H44.882V53.811c0-.3-.05-.3-.3-.3h-.251v2.566H39.8V53.408a5.536,5.536,0,0,1-2.365.352h-.5v2.315H31.4l-1.308-1.51-1.459,1.51H19.72V46.212h9.058l1.309,1.509L31.5,46.212h6.089a3.8,3.8,0,0,1,2.365.6v-.6h5.435a4.3,4.3,0,0,1,2.315.6v-.6h8.2v.6a3.346,3.346,0,0,1,2.063-.6h4.579v.6a3.639,3.639,0,0,1,2.114-.6h3.12Z" transform="translate(-14.182 148.708)" fill="#0077a6" fill-rule="evenodd"></path>
        </g>
      </g>
    </symbol>
    <symbol id="mc" viewBox="0 0 60 40">
      <g transform="translate(-3.637 53.463)">
        <g transform="translate(3.637 -53.463)" fill="#fff" stroke="#eef0f8" stroke-width="1">
          <rect width="60" height="40" rx="5" stroke="none"></rect>
          <rect x="0.5" y="0.5" width="59" height="39" rx="4.5" fill="none"></rect>
        </g>
        <g transform="translate(2.481 0.839)">
          <path d="M134.394,1320.716v.066h.062a.065.065,0,0,0,.033-.008.03.03,0,0,0,.012-.025.028.028,0,0,0-.012-.025.059.059,0,0,0-.033-.008h-.062Zm.063-.047a.115.115,0,0,1,.074.022.071.071,0,0,1,.026.059.067.067,0,0,1-.021.052.1.1,0,0,1-.059.025l.083.095H134.5l-.076-.094h-.025v.094h-.053v-.251h.116Zm-.017.338a.2.2,0,0,0,.082-.017.213.213,0,0,0,.066-.045.211.211,0,0,0,.045-.066.215.215,0,0,0,0-.164.218.218,0,0,0-.045-.066.215.215,0,0,0-.066-.045.21.21,0,0,0-.082-.016.219.219,0,0,0-.083.016.209.209,0,0,0-.112.277.2.2,0,0,0,.044.066.212.212,0,0,0,.068.045.206.206,0,0,0,.083.017m0-.482a.278.278,0,0,1,.2.08.268.268,0,0,1,.059.3.28.28,0,0,1-.059.086.3.3,0,0,1-.087.058.269.269,0,0,1-.108.022.276.276,0,0,1-.109-.022.283.283,0,0,1-.088-.058.279.279,0,0,1-.058-.089.268.268,0,0,1,.059-.3.262.262,0,0,1,.088-.058.278.278,0,0,1,.109-.022m-25.425-.967a.825.825,0,1,1,.827.873.818.818,0,0,1-.827-.873m2.206,0v-1.363h-.593v.332a1.033,1.033,0,0,0-.861-.4,1.433,1.433,0,0,0,0,2.862,1.034,1.034,0,0,0,.861-.4v.331h.592v-1.363Zm20.023,0a.825.825,0,1,1,.827.873.818.818,0,0,1-.827-.873m2.207,0V1317.1h-.593v1.426a1.033,1.033,0,0,0-.861-.4,1.433,1.433,0,0,0,0,2.862,1.033,1.033,0,0,0,.861-.4v.331h.593Zm-14.875-.9a.677.677,0,0,1,.69.661h-1.414a.7.7,0,0,1,.724-.661m.012-.531a1.432,1.432,0,0,0,.04,2.862,1.655,1.655,0,0,0,1.117-.382l-.29-.439a1.3,1.3,0,0,1-.793.285.757.757,0,0,1-.815-.667h2.024c.006-.074.012-.148.012-.228a1.307,1.307,0,0,0-1.294-1.431m7.155,1.431a.825.825,0,1,1,.827.873.818.818,0,0,1-.827-.873m2.206,0v-1.362h-.592v.332a1.034,1.034,0,0,0-.861-.4,1.433,1.433,0,0,0,0,2.862,1.034,1.034,0,0,0,.861-.4v.331h.592v-1.363Zm-5.553,0a1.377,1.377,0,0,0,1.454,1.431,1.424,1.424,0,0,0,.98-.325l-.285-.479a1.2,1.2,0,0,1-.714.245.874.874,0,0,1,0-1.745,1.2,1.2,0,0,1,.714.245l.285-.479a1.426,1.426,0,0,0-.98-.325,1.377,1.377,0,0,0-1.454,1.431m7.64-1.431a.8.8,0,0,0-.718.4v-.33h-.587v2.725h.593v-1.528c0-.451.194-.7.581-.7a.963.963,0,0,1,.371.069l.183-.559a1.26,1.26,0,0,0-.422-.074m-15.884.285a2.037,2.037,0,0,0-1.111-.285c-.69,0-1.135.331-1.135.872,0,.444.331.718.94.8l.28.04c.325.046.478.131.478.285,0,.211-.216.331-.621.331a1.452,1.452,0,0,1-.906-.285l-.278.462a1.966,1.966,0,0,0,1.18.354c.787,0,1.243-.371,1.243-.89,0-.479-.359-.73-.952-.815l-.279-.041c-.257-.033-.462-.085-.462-.267,0-.2.194-.319.519-.319a1.758,1.758,0,0,1,.85.234l.257-.479Zm7.646-.285a.8.8,0,0,0-.718.4v-.331h-.587v2.725h.593v-1.528c0-.451.194-.7.581-.7a.963.963,0,0,1,.371.069l.183-.559a1.26,1.26,0,0,0-.422-.074m-5.057.068h-.969v-.827h-.6v.827h-.553v.542h.553v1.243c0,.632.245,1.009.946,1.009a1.391,1.391,0,0,0,.741-.211l-.171-.507a1.1,1.1,0,0,1-.525.154c-.3,0-.393-.183-.393-.456v-1.231h.969Zm-8.86,2.726v-1.71a1.015,1.015,0,0,0-1.072-1.083,1.055,1.055,0,0,0-.958.485,1,1,0,0,0-.9-.485.9.9,0,0,0-.8.4v-.337h-.593v2.725h.6v-1.511a.638.638,0,0,1,.667-.724c.394,0,.593.256.593.718v1.517h.6v-1.511a.643.643,0,0,1,.667-.724c.4,0,.6.257.6.718v1.517Z" transform="translate(-87.685 -1342.532)" fill="#231f20"></path>
          <path d="M1929.715,977.618v-.4h-.1l-.12.273-.119-.273h-.1v.4h.074v-.3l.112.259h.076l.112-.26v.3h.073Zm-.658,0v-.33h.133v-.067h-.339v.067h.133v.33h.073Z" transform="translate(-1882.667 -1008.296)" fill="#f79410"></path>
          <path d="M738.69,148.289h-8.98V132.15h8.981Z" transform="translate(-703.438 -177.257)" fill="#ff5f00"></path>
          <path d="M12.686,10.263a10.247,10.247,0,0,1,3.92-8.07,10.264,10.264,0,1,0,0,16.139,10.247,10.247,0,0,1-3.92-8.07" transform="translate(14.156 -47.301)" fill="#eb001b"></path>
          <path d="M1016.716,10.264a10.263,10.263,0,0,1-16.606,8.07,10.265,10.265,0,0,0,0-16.139,10.263,10.263,0,0,1,16.606,8.07" transform="translate(-969.349 -47.301)" fill="#f79e1b"></path>
        </g>
      </g>
    </symbol>
    <symbol id="di" viewBox="0 0 60 40">
      <g transform="translate(230 -27)">
        <g transform="translate(-230 27)" fill="#fff" stroke="#eef0f8" stroke-width="1">
          <rect width="60" height="40" rx="5" stroke="none"></rect>
          <rect x="0.5" y="0.5" width="59" height="39" rx="4.5" fill="none"></rect>
        </g>
        <path d="M2.834,80.776H4.975a7.914,7.914,0,0,1,1.161.091,3.952,3.952,0,0,1,0,7.82,7.97,7.97,0,0,1-1.161.072H2.834Zm48.555,1.216a.506.506,0,0,0,.508-.544.511.511,0,1,0-1.017,0A.506.506,0,0,0,51.389,81.992Zm0-1.234a.689.689,0,1,1-.689.689A.689.689,0,0,1,51.389,80.758Zm0,.8-.037-.054h-.091v.327h-.146v-.78h.308c.181,0,.291.073.291.236a.221.221,0,0,1-.218.218l.218.327h-.163Zm0-.4h.018c.072,0,.145.018.145.109,0,.109-.072.127-.145.127h-.145v-.236h.127Zm-5.044,3.012c.6-.073,1.088-.327,1.088-1.089,0-.726-.489-.925-1.088-1.016H45.256v2.141h.508C45.963,84.206,46.163,84.187,46.344,84.169Zm0-3.375c1.415.054,2.722.345,2.722,2.159a1.786,1.786,0,0,1-1.6,1.851c.417.054.671.472.816.835l1.252,3.12H47.8l-.943-2.5a.985.985,0,0,0-1.089-.817h-.508v3.32H43.7V80.776h1.687c.308,0,.653,0,.962.018ZM31.811,83.171a4.4,4.4,0,0,1,.272,1.6,4.613,4.613,0,0,1-.272,1.6,3.831,3.831,0,0,1-3.792,2.54,4.128,4.128,0,0,1,0-8.256A3.816,3.816,0,0,1,31.811,83.171Zm0-1.687,2.758,7.276h.58l3.066-7.983H36.582L34.95,84.986l-1.742-4.209H31.539Zm6.8-.708H43.26v1.288H40.193v1.96h2.794v1.233H40.193v2.25h3.085V88.76H38.615V80.776ZM6.136,82.192a2.7,2.7,0,0,0-.853-.127H4.395v5.443h.889a2.716,2.716,0,0,0,.853-.145,2.79,2.79,0,0,0,0-5.171Zm3.992-1.415h1.578V88.76H10.128ZM16.769,82.9a4.374,4.374,0,0,0-1.742-.762c-.562-.073-1.161.091-1.161.889,0,1.379,3.448.8,3.448,3.466A2.419,2.419,0,0,1,14.356,88.9a3.953,3.953,0,0,1-2.014-.8V86.473a7.633,7.633,0,0,0,1.923.962c.671.109,1.4-.091,1.4-.816,0-1.542-3.429-.907-3.429-3.538,0-1.778,1.343-2.431,2.722-2.431a2.646,2.646,0,0,1,1.814.726V82.9Zm6.75,5.062a3.125,3.125,0,0,1-1.978.853c-2.449.163-4.082-1.2-4.082-3.9,0-2.722,1.433-4.318,4.082-4.173a3.439,3.439,0,0,1,1.941.671v1.524a4.224,4.224,0,0,0-1.941-.726c-1.615-.054-2.449.962-2.449,2.594s.78,2.54,2.449,2.468a4.2,4.2,0,0,0,1.978-.834Z" transform="translate(-227.834 -37.649)" fill-rule="evenodd"></path>
        <g transform="translate(-204 43)" fill="#f78222" stroke="#f78222" stroke-width="0.4">
          <circle cx="4" cy="4" r="4" stroke="none"></circle>
          <circle cx="4" cy="4" r="4.2" fill="none"></circle>
        </g>
      </g>
    </symbol>
    <symbol id="pp" viewBox="0 0 60 40">
      <g transform="translate(171.229 166.893)">
        <g transform="translate(-171.229 -166.893)" fill="#fff" stroke="#eef0f8" stroke-width="1">
          <rect width="60" height="40" rx="5" stroke="none"></rect>
          <rect x="0.5" y="0.5" width="59" height="39" rx="4.5" fill="none"></rect>
        </g>
        <g transform="translate(-201.727 -166.999)">
          <path d="M20.967-89.954a3.342,3.342,0,0,0-2.566-.816H15.036a.482.482,0,0,0-.476.406l-1.4,8.884a.289.289,0,0,0,.066.233.289.289,0,0,0,.22.1h2.077l.522-3.308-.016.1a.48.48,0,0,1,.474-.406h.987c1.939,0,3.457-.787,3.9-3.065q.02-.1.034-.2a2.151,2.151,0,0,0-.456-1.934" transform="translate(26.342 105.877)" fill="#003087"></path>
          <path d="M220.813-68.7c-.127.834-.764.834-1.379.834h-.35l.246-1.556a.193.193,0,0,1,.191-.163h.161c.419,0,.815,0,1.019.239a.776.776,0,0,1,.113.647m-.268-2.175h-2.322a.323.323,0,0,0-.319.272l-.938,5.955a.194.194,0,0,0,.044.156.194.194,0,0,0,.147.068h1.192a.226.226,0,0,0,.223-.19l.266-1.689a.323.323,0,0,1,.319-.272h.735a2.385,2.385,0,0,0,2.643-2.207,1.788,1.788,0,0,0-.3-1.5,2.154,2.154,0,0,0-1.693-.593" transform="translate(-148.08 88.85)" fill="#009cde"></path>
          <path d="M105.927-68.7c-.127.834-.764.834-1.379.834h-.35l.246-1.556a.193.193,0,0,1,.191-.163h.161c.419,0,.815,0,1.019.239a.775.775,0,0,1,.113.647m-.268-2.175h-2.322a.323.323,0,0,0-.319.272l-.939,5.955a.193.193,0,0,0,.044.156.193.193,0,0,0,.147.068h1.109a.323.323,0,0,0,.319-.272l.254-1.606a.322.322,0,0,1,.319-.272H105a2.385,2.385,0,0,0,2.643-2.208,1.788,1.788,0,0,0-.3-1.5,2.154,2.154,0,0,0-1.693-.593m5.391,4.313A1.24,1.24,0,0,1,109.8-65.5a.939.939,0,0,1-.747-.3.944.944,0,0,1-.174-.781,1.244,1.244,0,0,1,1.246-1.07.937.937,0,0,1,.741.3.957.957,0,0,1,.189.786m1.55-2.165h-1.112a.194.194,0,0,0-.192.164l-.049.311-.078-.113a1.583,1.583,0,0,0-1.314-.466,2.557,2.557,0,0,0-2.482,2.237,2.1,2.1,0,0,0,.414,1.709,1.74,1.74,0,0,0,1.4.565,2.129,2.129,0,0,0,1.54-.636l-.05.309a.193.193,0,0,0,.044.156.193.193,0,0,0,.147.068h1a.323.323,0,0,0,.319-.272l.6-3.806a.194.194,0,0,0-.044-.156.194.194,0,0,0-.147-.068" transform="translate(-49.758 88.85)" fill="#003087"></path>
          <path d="M257.187-54.43a1.24,1.24,0,0,1-1.255,1.062.939.939,0,0,1-.747-.3.944.944,0,0,1-.174-.781,1.244,1.244,0,0,1,1.246-1.07.937.937,0,0,1,.741.3.957.957,0,0,1,.189.786m1.55-2.165h-1.112a.194.194,0,0,0-.192.164l-.049.311-.078-.113a1.583,1.583,0,0,0-1.314-.466,2.558,2.558,0,0,0-2.482,2.237,2.1,2.1,0,0,0,.414,1.709,1.74,1.74,0,0,0,1.4.565,2.13,2.13,0,0,0,1.54-.636l-.05.309a.193.193,0,0,0,.044.156.193.193,0,0,0,.147.068h1a.323.323,0,0,0,.319-.272l.6-3.806a.194.194,0,0,0-.044-.156.194.194,0,0,0-.147-.068" transform="translate(-179.33 76.718)" fill="#009cde"></path>
          <path d="M185.39-55.974h-1.118a.321.321,0,0,0-.266.142l-1.542,2.271-.654-2.182a.323.323,0,0,0-.309-.231h-1.1a.194.194,0,0,0-.158.081.194.194,0,0,0-.026.175l1.231,3.613-1.158,1.633a.194.194,0,0,0-.014.2.194.194,0,0,0,.172.1h1.117a.323.323,0,0,0,.265-.139l3.717-5.365a.193.193,0,0,0,.013-.2.193.193,0,0,0-.171-.1" transform="translate(-116.625 76.098)" fill="#003087"></path>
          <path d="M293.371-70.709l-.953,6.064a.194.194,0,0,0,.044.156.194.194,0,0,0,.147.068h.958a.323.323,0,0,0,.319-.272l.94-5.955a.193.193,0,0,0-.044-.156.193.193,0,0,0-.147-.068h-1.073a.193.193,0,0,0-.191.163" transform="translate(-212.654 88.848)" fill="#009cde"></path>
          <path d="M20.967-89.954a3.342,3.342,0,0,0-2.566-.816H15.036a.482.482,0,0,0-.476.406l-1.4,8.884a.289.289,0,0,0,.066.233.289.289,0,0,0,.22.1h2.077l.522-3.308-.016.1a.48.48,0,0,1,.474-.406h.987c1.939,0,3.457-.787,3.9-3.065q.02-.1.034-.2a2.151,2.151,0,0,0-.456-1.934" transform="translate(26.342 105.877)" fill="#003087"></path>
          <path d="M16.6-88.007a.422.422,0,0,1,.416-.355h2.637a5.544,5.544,0,0,1,.87.063,3.655,3.655,0,0,1,.431.1,2.382,2.382,0,0,1,.464.185,2.15,2.15,0,0,0-.456-1.934,3.344,3.344,0,0,0-2.566-.816H15.034a.482.482,0,0,0-.475.406l-1.4,8.883a.289.289,0,0,0,.066.233.289.289,0,0,0,.219.1H15.52l.522-3.309Z" transform="translate(26.344 105.875)" fill="#003087"></path>
          <path d="M34.592-71.7q-.015.1-.034.2c-.443,2.278-1.961,3.065-3.9,3.065H29.67a.48.48,0,0,0-.474.406l-.505,3.2-.144.909a.253.253,0,0,0,.057.2.253.253,0,0,0,.192.089h1.751a.421.421,0,0,0,.416-.355l.017-.089.33-2.091.021-.116a.421.421,0,0,1,.416-.355h.262a3.086,3.086,0,0,0,3.412-2.682,2.286,2.286,0,0,0-.35-2.016,1.672,1.672,0,0,0-.479-.37" transform="translate(13.173 89.552)" fill="#009cde"></path>
          <path d="M38-73.924q-.1-.03-.209-.054c-.072-.016-.146-.03-.222-.042a5.437,5.437,0,0,0-.87-.064H34.061a.42.42,0,0,0-.416.356l-.561,3.554-.016.1a.48.48,0,0,1,.474-.406h.987c1.939,0,3.457-.787,3.9-3.065.013-.067.024-.133.034-.2a2.394,2.394,0,0,0-.365-.154l-.1-.031" transform="translate(9.301 91.596)" fill="#012169"></path>
        </g>
      </g>
    </symbol>
    <symbol  id="instagram" viewBox="0 0 512.00096 512.00096" >
      <path d="m373.40625 0h-234.8125c-76.421875 0-138.59375 62.171875-138.59375 138.59375v234.816406c0 76.417969 62.171875 138.589844 138.59375 138.589844h234.816406c76.417969 0 138.589844-62.171875 138.589844-138.589844v-234.816406c0-76.421875-62.171875-138.59375-138.59375-138.59375zm108.578125 373.410156c0 59.867188-48.707031 108.574219-108.578125 108.574219h-234.8125c-59.871094 0-108.578125-48.707031-108.578125-108.574219v-234.816406c0-59.871094 48.707031-108.578125 108.578125-108.578125h234.816406c59.867188 0 108.574219 48.707031 108.574219 108.578125zm0 0"/>
      <path d="m256 116.003906c-77.195312 0-139.996094 62.800782-139.996094 139.996094s62.800782 139.996094 139.996094 139.996094 139.996094-62.800782 139.996094-139.996094-62.800782-139.996094-139.996094-139.996094zm0 249.976563c-60.640625 0-109.980469-49.335938-109.980469-109.980469 0-60.640625 49.339844-109.980469 109.980469-109.980469 60.644531 0 109.980469 49.339844 109.980469 109.980469 0 60.644531-49.335938 109.980469-109.980469 109.980469zm0 0"/>
      <path d="m399.34375 66.285156c-22.8125 0-41.367188 18.558594-41.367188 41.367188 0 22.8125 18.554688 41.371094 41.367188 41.371094s41.371094-18.558594 41.371094-41.371094-18.558594-41.367188-41.371094-41.367188zm0 52.71875c-6.257812 0-11.351562-5.09375-11.351562-11.351562 0-6.261719 5.09375-11.351563 11.351562-11.351563 6.261719 0 11.355469 5.089844 11.355469 11.351563 0 6.257812-5.09375 11.351562-11.355469 11.351562zm0 0"/>
    </symbol>
    <symbol id="twitter" viewBox="0 -47 512.00004 512" >
      <path d="m512 55.964844c-32.207031 1.484375-31.503906 1.363281-35.144531 1.667968l19.074219-54.472656s-59.539063 21.902344-74.632813 25.820313c-39.640625-35.628907-98.5625-37.203125-140.6875-11.3125-34.496094 21.207031-53.011719 57.625-46.835937 100.191406-67.136719-9.316406-123.703126-41.140625-168.363282-94.789063l-14.125-16.964843-10.554687 19.382812c-13.339844 24.492188-17.769531 52.496094-12.476563 78.851563 2.171875 10.8125 5.863282 21.125 10.976563 30.78125l-12.117188-4.695313-1.4375 20.246094c-1.457031 20.566406 5.390625 44.574219 18.320313 64.214844 3.640625 5.53125 8.328125 11.605469 14.269531 17.597656l-6.261719-.960937 7.640625 23.199218c10.042969 30.480469 30.902344 54.0625 57.972657 67.171875-27.035157 11.472657-48.875 18.792969-84.773438 30.601563l-32.84375 10.796875 30.335938 16.585937c11.566406 6.324219 52.4375 27.445313 92.820312 33.78125 89.765625 14.078125 190.832031 2.613282 258.871094-58.664062 57.308594-51.613282 76.113281-125.03125 72.207031-201.433594-.589844-11.566406 2.578125-22.605469 8.921875-31.078125 12.707031-16.964844 48.765625-66.40625 48.84375-66.519531zm-72.832031 48.550781c-10.535157 14.066406-15.8125 32.03125-14.867188 50.578125 3.941407 77.066406-17.027343 136.832031-62.328125 177.628906-52.917968 47.660156-138.273437 66.367188-234.171875 51.324219-17.367187-2.722656-35.316406-8.820313-50.171875-14.910156 30.097656-10.355469 53.339844-19.585938 90.875-37.351563l52.398438-24.800781-57.851563-3.703125c-27.710937-1.773438-50.785156-15.203125-64.96875-37.007812 7.53125-.4375 14.792969-1.65625 22.023438-3.671876l55.175781-15.367187-55.636719-13.625c-27.035156-6.621094-42.445312-22.796875-50.613281-35.203125-5.363281-8.152344-8.867188-16.503906-10.96875-24.203125 5.578125 1.496094 12.082031 2.5625 22.570312 3.601563l51.496094 5.09375-40.800781-31.828126c-29.398437-22.929687-41.179687-57.378906-32.542969-90.496093 91.75 95.164062 199.476563 88.011719 210.320313 90.527343-2.386719-23.183593-2.449219-23.238281-3.074219-25.445312-13.886719-49.089844 16.546875-74.015625 30.273438-82.453125 28.671874-17.621094 74.183593-20.277344 105.707031 8.753906 6.808593 6.265625 16.015625 8.730469 24.632812 6.589844 7.734375-1.921875 14.082031-3.957031 20.296875-6.171875l-12.9375 36.945312 16.515625.011719c-3.117187 4.179688-6.855469 9.183594-11.351562 15.183594zm0 0"/>
    </symbol>
    <symbol id="youtube" viewBox="0 -62 512.00199 512" >
      <path d="m334.808594 170.992188-113.113282-61.890626c-6.503906-3.558593-14.191406-3.425781-20.566406.351563-6.378906 3.78125-10.183594 10.460937-10.183594 17.875v122.71875c0 7.378906 3.78125 14.046875 10.117188 17.832031 3.308594 1.976563 6.976562 2.96875 10.652344 2.96875 3.367187 0 6.742187-.832031 9.847656-2.503906l113.117188-60.824219c6.714843-3.613281 10.90625-10.59375 10.9375-18.222656.027343-7.628906-4.113282-14.640625-10.808594-18.304687zm-113.859375 63.617187v-91.71875l84.539062 46.257813zm0 0"/>
      <path d="m508.234375 91.527344-.023437-.234375c-.433594-4.121094-4.75-40.777344-22.570313-59.421875-20.597656-21.929688-43.949219-24.59375-55.179687-25.871094-.929688-.105469-1.78125-.203125-2.542969-.304688l-.894531-.09375c-67.6875-4.921874-169.910157-5.5937495-170.933594-5.59765575l-.089844-.00390625-.089844.00390625c-1.023437.00390625-103.246094.67578175-171.542968 5.59765575l-.902344.09375c-.726563.097657-1.527344.1875-2.398438.289063-11.101562 1.28125-34.203125 3.949219-54.859375 26.671875-16.972656 18.445312-21.878906 54.316406-22.382812 58.347656l-.058594.523438c-.152344 1.714844-3.765625 42.539062-3.765625 83.523437v38.3125c0 40.984375 3.613281 81.808594 3.765625 83.527344l.027344.257813c.433593 4.054687 4.746093 40.039062 22.484375 58.691406 19.367187 21.195312 43.855468 24 57.027344 25.507812 2.082031.238282 3.875.441406 5.097656.65625l1.183594.164063c39.082031 3.71875 161.617187 5.550781 166.8125 5.625l.15625.003906.15625-.003906c1.023437-.003907 103.242187-.675781 170.929687-5.597657l.894531-.09375c.855469-.113281 1.816406-.214843 2.871094-.324218 11.039062-1.171875 34.015625-3.605469 54.386719-26.019532 16.972656-18.449218 21.882812-54.320312 22.382812-58.347656l.058594-.523437c.152344-1.71875 3.769531-42.539063 3.769531-83.523438v-38.3125c-.003906-40.984375-3.617187-81.804687-3.769531-83.523437zm-26.238281 121.835937c0 37.933594-3.3125 77-3.625 80.585938-1.273438 9.878906-6.449219 32.574219-14.71875 41.5625-12.75 14.027343-25.847656 15.417969-35.410156 16.429687-1.15625.121094-2.226563.238282-3.195313.359375-65.46875 4.734375-163.832031 5.460938-168.363281 5.488281-5.082032-.074218-125.824219-1.921874-163.714844-5.441406-1.941406-.316406-4.039062-.558594-6.25-.808594-11.214844-1.285156-26.566406-3.042968-38.371094-16.027343l-.277344-.296875c-8.125-8.464844-13.152343-29.6875-14.429687-41.148438-.238281-2.710937-3.636719-42.238281-3.636719-80.703125v-38.3125c0-37.890625 3.304688-76.914062 3.625-80.574219 1.519532-11.636718 6.792969-32.957031 14.71875-41.574218 13.140625-14.453125 26.996094-16.054688 36.160156-17.113282.875-.101562 1.691407-.195312 2.445313-.292968 66.421875-4.757813 165.492187-5.464844 169.046875-5.492188 3.554688.023438 102.589844.734375 168.421875 5.492188.808594.101562 1.691406.203125 2.640625.3125 9.425781 1.074218 23.671875 2.699218 36.746094 16.644531l.121094.128906c8.125 8.464844 13.152343 30.058594 14.429687 41.75.226563 2.558594 3.636719 42.171875 3.636719 80.71875zm0 0"/>
    </symbol>
    <symbol id="facebook-square" viewBox="0 0 512 512" >
      <path d="m75 512h167v-182h-60v-60h60v-75c0-41.355469 33.644531-75 75-75h75v60h-60c-16.542969 0-30 13.457031-30 30v60h87.292969l-10 60h-77.292969v182h135c41.355469 0 75-33.644531 75-75v-362c0-41.355469-33.644531-75-75-75h-362c-41.355469 0-75 33.644531-75 75v362c0 41.355469 33.644531 75 75 75zm-45-437c0-24.8125 20.1875-45 45-45h362c24.8125 0 45 20.1875 45 45v362c0 24.8125-20.1875 45-45 45h-105v-122h72.707031l20-120h-92.707031v-30h90v-120h-105c-57.898438 0-105 47.101562-105 105v45h-60v120h60v122h-137c-24.8125 0-45-20.1875-45-45zm0 0"/>
    </symbol>
    <symbol id="pinterest-square"  viewBox="0 0 24 24" >
      <path d="m12.326 0c-6.579.001-10.076 4.216-10.076 8.812 0 2.131 1.191 4.79 3.098 5.633.544.245.472-.054.94-1.844.037-.149.018-.278-.102-.417-2.726-3.153-.532-9.635 5.751-9.635 9.093 0 7.394 12.582 1.582 12.582-1.498 0-2.614-1.176-2.261-2.631.428-1.733 1.266-3.596 1.266-4.845 0-3.148-4.69-2.681-4.69 1.49 0 1.289.456 2.159.456 2.159s-1.509 6.096-1.789 7.235c-.474 1.928.064 5.049.111 5.318.029.148.195.195.288.073.149-.195 1.973-2.797 2.484-4.678.186-.685.949-3.465.949-3.465.503.908 1.953 1.668 3.498 1.668 4.596 0 7.918-4.04 7.918-9.053-.016-4.806-4.129-8.402-9.423-8.402z"/>
    </symbol>
    <symbol id="OnPremisePharmacy" viewBox="0 0 23.24 23.28"><path d="M21.43,1.79a6.14,6.14,0,0,0-8.67,0L7.7,6.85l5.74,5.74a6.72,6.72,0,0,1,7-1.06l1-1.07A6.14,6.14,0,0,0,21.43,1.79Z" transform="translate(0.01 0)" fill="currentColor"/><path d="M12.49,13.56,6.74,7.81l-4.95,5a6.17,6.17,0,0,0,8.72,8.72h0l1-1a6.7,6.7,0,0,1,1-6.91Z" transform="translate(0.01 0)" fill="currentColor"/><path d="M12.32,17.8a5.43,5.43,0,0,0,4.77,5.38V12.42A5.43,5.43,0,0,0,12.32,17.8Z" transform="translate(0.01 0)" fill="currentColor" /><path d="M18.46,12.42V23.18a5.42,5.42,0,0,0,0-10.76Z" transform="translate(0.01 0)" fill="currentColor" />
    </symbol>
    <symbol id="OnPremiseDining" viewBox="0 0 19.39 19.4"><path d="M18.8,17.74a.93.93,0,1,1-1.28,1.36l-.05,0L9.85,10.88l-.28-.31-8,8.56a1,1,0,0,1-1.34,0,1,1,0,0,1,0-1.34l8.59-8c4.29-4-1.39-1.49-2-2.13a3.51,3.51,0,0,1-4.71-.92C.82,5.14-.34,2.24.78,1.05s4.09,0,5.71,1.37a3.53,3.53,0,0,1,.92,4.72l2.16,2h0l2-1.88a2.56,2.56,0,0,1,.73-3.11c1.06-.89,5-4.26,5.1-4.16s-2.65,2.71-4.49,4.55l.31.31c2-1.72,4.73-4.3,4.84-4.2s-2.56,2.8-4.34,4.7l.3.3c1.9-1.78,4.59-4.45,4.7-4.34s-2.48,2.88-4.2,4.84l.3.3c1.84-1.84,4.44-4.6,4.55-4.49s-4.15,5.09-4.15,5.1h0a2.45,2.45,0,0,1-3.11.73l-1.86,2Z" transform="translate(0 0)" fill="currentColor" />
    </symbol>
    <symbol id="OnPremiseFuel" viewBox="0 0 21.35 24.4"><path d="M19.35,24.4H1.24A1.23,1.23,0,0,1,0,23.16v-2.1a1.24,1.24,0,0,1,1.24-1.23H19.35a1.24,1.24,0,0,1,1.24,1.23v2.1A1.24,1.24,0,0,1,19.35,24.4Z" transform="translate(0 0)" fill="currentColor"/><path d="M7.1,6.1h6.39a.24.24,0,0,0,.24-.24h0V3.29a.24.24,0,0,0-.24-.24H7.1a.24.24,0,0,0-.24.24h0V5.86a.24.24,0,0,0,.24.24Z" transform="translate(0 0)" fill="currentColor"/><path d="M8.39,14.11a1.91,1.91,0,0,0,3.81,0A8.22,8.22,0,0,0,10.49,11a.24.24,0,0,0-.34-.05L10.1,11A8.22,8.22,0,0,0,8.39,14.11Z" transform="translate(0 0)" fill="currentColor"/><path d="M20.93,4.27,18.3,3V2.19A2.19,2.19,0,0,0,16.11,0H4.48A2.19,2.19,0,0,0,2.29,2.19h0V18.06a.24.24,0,0,0,.24.24H18.06a.24.24,0,0,0,.24-.24V17.4l2-2.74a5.49,5.49,0,0,0,1.06-3.25V5a.77.77,0,0,0-.42-.69ZM10.29,17.54a3.44,3.44,0,0,1-3.43-3.43,6.67,6.67,0,0,1,1.47-3.28C9,9.85,9.69,9.07,9.72,9A.76.76,0,0,1,10.79,9l.08.08s.7.82,1.39,1.8a6.67,6.67,0,0,1,1.47,3.28A3.44,3.44,0,0,1,10.29,17.54Zm5-11.15A1.23,1.23,0,0,1,14,7.62H6.58A1.23,1.23,0,0,1,5.34,6.39V2.76A1.25,1.25,0,0,1,6.58,1.52H14a1.25,1.25,0,0,1,1.24,1.24Zm4.58,5a4,4,0,0,1-.77,2.36l-.76,1V4.66l1.53.77Z" transform="translate(0 0)" fill="currentColor" />
    </symbol>
  </defs>
</svg>